{
    "asset" : {
        "generator" : "Khronos glTF Blender I/O v1.7.33",
        "version" : "2.0"
    },
    "extensionsUsed" : [
        "KHR_materials_clearcoat"
    ],
    "scene" : 0,
    "scenes" : [
        {
            "name" : "Scene",
            "nodes" : [
                0,
                1,
                2,
                3,
                4,
                5,
                6,
                7,
                8
            ]
        }
    ],
    "nodes" : [
        {
            "mesh" : 0,
            "name" : "buttom"
        },
        {
            "mesh" : 1,
            "name" : "top",
            "translation" : [
                0,
                1.0799418687820435,
                0
            ]
        },
        {
            "mesh" : 2,
            "name" : "chesse",
            "scale" : [
                0.879145622253418,
                0.879145622253418,
                0.879145622253418
            ],
            "translation" : [
                0,
                0.7107176780700684,
                0
            ]
        },
        {
            "mesh" : 3,
            "name" : "meat",
            "translation" : [
                0,
                0.4974645972251892,
                0
            ]
        },
        {
            "mesh" : 4,
            "name" : "totato",
            "rotation" : [
                0,
                -0.5680117011070251,
                0,
                -0.8230204582214355
            ],
            "translation" : [
                0,
                0.6929141283035278,
                0
            ]
        },
        {
            "mesh" : 5,
            "name" : "topping_particle",
            "rotation" : [
                0,
                -0.5166728496551514,
                0,
                0.8561829328536987
            ],
            "translation" : [
                0,
                1.0767877101898193,
                0
            ]
        },
        {
            "mesh" : 6,
            "name" : "veg",
            "scale" : [
                1.189120888710022,
                1.189120888710022,
                1.189120888710022
            ],
            "translation" : [
                0,
                0.741680920124054,
                0
            ]
        },
        {
            "mesh" : 7,
            "name" : "veg.002",
            "rotation" : [
                0,
                -0.6308185458183289,
                0,
                0.7759304046630859
            ],
            "scale" : [
                1.189120888710022,
                1.189120888710022,
                1.189120888710022
            ],
            "translation" : [
                0,
                0.741680920124054,
                0
            ]
        },
        {
            "mesh" : 8,
            "name" : "veg.001",
            "rotation" : [
                0,
                -0.7696090936660767,
                0,
                0.6385153532028198
            ],
            "scale" : [
                1.0578360557556152,
                1.0578359365463257,
                1.0578360557556152
            ],
            "translation" : [
                0,
                0.741680920124054,
                0
            ]
        }
    ],
    "materials" : [
        {
            "doubleSided" : true,
            "name" : "bead",
            "pbrMetallicRoughness" : {
                "metallicFactor" : 0,
                "roughnessFactor" : 0.668181836605072
            }
        },
        {
            "doubleSided" : true,
            "extensions" : {
                "KHR_materials_clearcoat" : {
                    "clearcoatFactor" : 0.12272727489471436,
                    "clearcoatRoughnessFactor" : 0.029999999329447746
                }
            },
            "name" : "bead_top",
            "pbrMetallicRoughness" : {
                "metallicFactor" : 0,
                "roughnessFactor" : 0.24090909957885742
            }
        },
        {
            "doubleSided" : true,
            "name" : "chees",
            "pbrMetallicRoughness" : {
                "baseColorFactor" : [
                    1,
                    0.6242557764053345,
                    0.024271460250020027,
                    1
                ],
                "metallicFactor" : 0,
                "roughnessFactor" : 0.3499999940395355
            }
        },
        {
            "doubleSided" : true,
            "name" : "meat",
            "pbrMetallicRoughness" : {
                "metallicFactor" : 0
            }
        },
        {
            "doubleSided" : true,
            "name" : "tomato",
            "pbrMetallicRoughness" : {
                "baseColorFactor" : [
                    0.8000000715255737,
                    0,
                    0.000292519194772467,
                    1
                ],
                "metallicFactor" : 0,
                "roughnessFactor" : 0.1727272868156433
            }
        },
        {
            "alphaMode" : "BLEND",
            "doubleSided" : true,
            "name" : "Material.001",
            "pbrMetallicRoughness" : {}
        },
        {
            "alphaCutoff" : 0.5,
            "alphaMode" : "MASK",
            "doubleSided" : true,
            "name" : "veg",
            "pbrMetallicRoughness" : {
                "metallicFactor" : 0,
                "roughnessFactor" : 0.5
            }
        }
    ],
    "meshes" : [
        {
            "name" : "Circle.001",
            "primitives" : [
                {
                    "attributes" : {
                        "POSITION" : 0,
                        "NORMAL" : 1,
                        "TEXCOORD_0" : 2
                    },
                    "indices" : 3,
                    "material" : 0
                }
            ]
        },
        {
            "name" : "Circle.002",
            "primitives" : [
                {
                    "attributes" : {
                        "POSITION" : 4,
                        "NORMAL" : 5,
                        "TEXCOORD_0" : 6
                    },
                    "indices" : 7,
                    "material" : 1
                }
            ]
        },
        {
            "name" : "Plane.001",
            "primitives" : [
                {
                    "attributes" : {
                        "POSITION" : 8,
                        "NORMAL" : 9,
                        "TEXCOORD_0" : 10
                    },
                    "indices" : 11,
                    "material" : 2
                }
            ]
        },
        {
            "name" : "Circle.003",
            "primitives" : [
                {
                    "attributes" : {
                        "POSITION" : 12,
                        "NORMAL" : 13,
                        "TEXCOORD_0" : 14
                    },
                    "indices" : 15,
                    "material" : 3
                }
            ]
        },
        {
            "name" : "Circle.009",
            "primitives" : [
                {
                    "attributes" : {
                        "POSITION" : 16,
                        "NORMAL" : 17,
                        "TEXCOORD_0" : 18
                    },
                    "indices" : 19,
                    "material" : 4
                }
            ]
        },
        {
            "name" : "Circle.010",
            "primitives" : [
                {
                    "attributes" : {
                        "POSITION" : 20,
                        "NORMAL" : 21,
                        "TEXCOORD_0" : 22
                    },
                    "indices" : 23,
                    "material" : 5
                }
            ]
        },
        {
            "name" : "Circle.012",
            "primitives" : [
                {
                    "attributes" : {
                        "POSITION" : 24,
                        "NORMAL" : 25,
                        "TEXCOORD_0" : 26
                    },
                    "indices" : 27,
                    "material" : 6
                }
            ]
        },
        {
            "name" : "Circle.014",
            "primitives" : [
                {
                    "attributes" : {
                        "POSITION" : 28,
                        "NORMAL" : 29,
                        "TEXCOORD_0" : 30
                    },
                    "indices" : 27,
                    "material" : 6
                }
            ]
        },
        {
            "name" : "Circle.015",
            "primitives" : [
                {
                    "attributes" : {
                        "POSITION" : 31,
                        "NORMAL" : 32,
                        "TEXCOORD_0" : 33
                    },
                    "indices" : 27,
                    "material" : 6
                }
            ]
        }
    ],
    "accessors" : [
        {
            "bufferView" : 0,
            "componentType" : 5126,
            "count" : 458,
            "max" : [
                0.9677518606185913,
                0.5146652460098267,
                0.9677519202232361
            ],
            "min" : [
                -0.9677518606185913,
                0,
                -0.9677518010139465
            ],
            "type" : "VEC3"
        },
        {
            "bufferView" : 1,
            "componentType" : 5126,
            "count" : 458,
            "type" : "VEC3"
        },
        {
            "bufferView" : 2,
            "componentType" : 5126,
            "count" : 458,
            "type" : "VEC2"
        },
        {
            "bufferView" : 3,
            "componentType" : 5123,
            "count" : 2736,
            "type" : "SCALAR"
        },
        {
            "bufferView" : 4,
            "componentType" : 5126,
            "count" : 458,
            "max" : [
                0.9571084976196289,
                0.4198461174964905,
                0.9571084380149841
            ],
            "min" : [
                -0.9571084976196289,
                -0.2650989890098572,
                -0.9571084976196289
            ],
            "type" : "VEC3"
        },
        {
            "bufferView" : 5,
            "componentType" : 5126,
            "count" : 458,
            "type" : "VEC3"
        },
        {
            "bufferView" : 6,
            "componentType" : 5126,
            "count" : 458,
            "type" : "VEC2"
        },
        {
            "bufferView" : 7,
            "componentType" : 5123,
            "count" : 2736,
            "type" : "SCALAR"
        },
        {
            "bufferView" : 8,
            "componentType" : 5126,
            "count" : 5632,
            "max" : [
                1.000059723854065,
                -0.18712776899337769,
                0.9999841451644897
            ],
            "min" : [
                -0.9999343156814575,
                -0.5208876132965088,
                -1.000002384185791
            ],
            "type" : "VEC3"
        },
        {
            "bufferView" : 9,
            "componentType" : 5126,
            "count" : 5632,
            "type" : "VEC3"
        },
        {
            "bufferView" : 10,
            "componentType" : 5126,
            "count" : 5632,
            "type" : "VEC2"
        },
        {
            "bufferView" : 11,
            "componentType" : 5123,
            "count" : 33696,
            "type" : "SCALAR"
        },
        {
            "bufferView" : 12,
            "componentType" : 5126,
            "count" : 410,
            "max" : [
                0.8595725297927856,
                0.26808175444602966,
                0.8804002404212952
            ],
            "min" : [
                -0.9188644289970398,
                -0.014181816019117832,
                -0.8786887526512146
            ],
            "type" : "VEC3"
        },
        {
            "bufferView" : 13,
            "componentType" : 5126,
            "count" : 410,
            "type" : "VEC3"
        },
        {
            "bufferView" : 14,
            "componentType" : 5126,
            "count" : 410,
            "type" : "VEC2"
        },
        {
            "bufferView" : 15,
            "componentType" : 5123,
            "count" : 2448,
            "type" : "SCALAR"
        },
        {
            "bufferView" : 16,
            "componentType" : 5126,
            "count" : 2560,
            "max" : [
                0.9067829251289368,
                0.13046394288539886,
                0.8399767875671387
            ],
            "min" : [
                -0.8099361658096313,
                0.05953589081764221,
                -0.7880476713180542
            ],
            "type" : "VEC3"
        },
        {
            "bufferView" : 17,
            "componentType" : 5126,
            "count" : 2560,
            "type" : "VEC3"
        },
        {
            "bufferView" : 18,
            "componentType" : 5126,
            "count" : 2560,
            "type" : "VEC2"
        },
        {
            "bufferView" : 19,
            "componentType" : 5123,
            "count" : 12960,
            "type" : "SCALAR"
        },
        {
            "bufferView" : 20,
            "componentType" : 5126,
            "count" : 816,
            "max" : [
                0.9040378928184509,
                0.42462262511253357,
                0.9040377140045166
            ],
            "min" : [
                -0.9040378332138062,
                0.2176462560892105,
                -0.9040379524230957
            ],
            "type" : "VEC3"
        },
        {
            "bufferView" : 21,
            "componentType" : 5126,
            "count" : 816,
            "type" : "VEC3"
        },
        {
            "bufferView" : 22,
            "componentType" : 5126,
            "count" : 816,
            "type" : "VEC2"
        },
        {
            "bufferView" : 23,
            "componentType" : 5123,
            "count" : 4608,
            "type" : "SCALAR"
        },
        {
            "bufferView" : 24,
            "componentType" : 5126,
            "count" : 1152,
            "max" : [
                0.9108548164367676,
                0.07218087464570999,
                0.9778705835342407
            ],
            "min" : [
                -0.9108548164367676,
                -0.07027485221624374,
                -0.9778705835342407
            ],
            "type" : "VEC3"
        },
        {
            "bufferView" : 25,
            "componentType" : 5126,
            "count" : 1152,
            "type" : "VEC3"
        },
        {
            "bufferView" : 26,
            "componentType" : 5126,
            "count" : 1152,
            "type" : "VEC2"
        },
        {
            "bufferView" : 27,
            "componentType" : 5123,
            "count" : 6144,
            "type" : "SCALAR"
        },
        {
            "bufferView" : 28,
            "componentType" : 5126,
            "count" : 1152,
            "max" : [
                0.9108548164367676,
                0.07218087464570999,
                0.9778705835342407
            ],
            "min" : [
                -0.9108548164367676,
                -0.07027485221624374,
                -0.9778705835342407
            ],
            "type" : "VEC3"
        },
        {
            "bufferView" : 29,
            "componentType" : 5126,
            "count" : 1152,
            "type" : "VEC3"
        },
        {
            "bufferView" : 30,
            "componentType" : 5126,
            "count" : 1152,
            "type" : "VEC2"
        },
        {
            "bufferView" : 31,
            "componentType" : 5126,
            "count" : 1152,
            "max" : [
                0.9108548164367676,
                0.07218087464570999,
                0.9778705835342407
            ],
            "min" : [
                -0.9108548164367676,
                -0.07027485221624374,
                -0.9778705835342407
            ],
            "type" : "VEC3"
        },
        {
            "bufferView" : 32,
            "componentType" : 5126,
            "count" : 1152,
            "type" : "VEC3"
        },
        {
            "bufferView" : 33,
            "componentType" : 5126,
            "count" : 1152,
            "type" : "VEC2"
        }
    ],
    "bufferViews" : [
        {
            "buffer" : 0,
            "byteLength" : 5496,
            "byteOffset" : 0
        },
        {
            "buffer" : 0,
            "byteLength" : 5496,
            "byteOffset" : 5496
        },
        {
            "buffer" : 0,
            "byteLength" : 3664,
            "byteOffset" : 10992
        },
        {
            "buffer" : 0,
            "byteLength" : 5472,
            "byteOffset" : 14656
        },
        {
            "buffer" : 0,
            "byteLength" : 5496,
            "byteOffset" : 20128
        },
        {
            "buffer" : 0,
            "byteLength" : 5496,
            "byteOffset" : 25624
        },
        {
            "buffer" : 0,
            "byteLength" : 3664,
            "byteOffset" : 31120
        },
        {
            "buffer" : 0,
            "byteLength" : 5472,
            "byteOffset" : 34784
        },
        {
            "buffer" : 0,
            "byteLength" : 67584,
            "byteOffset" : 40256
        },
        {
            "buffer" : 0,
            "byteLength" : 67584,
            "byteOffset" : 107840
        },
        {
            "buffer" : 0,
            "byteLength" : 45056,
            "byteOffset" : 175424
        },
        {
            "buffer" : 0,
            "byteLength" : 67392,
            "byteOffset" : 220480
        },
        {
            "buffer" : 0,
            "byteLength" : 4920,
            "byteOffset" : 287872
        },
        {
            "buffer" : 0,
            "byteLength" : 4920,
            "byteOffset" : 292792
        },
        {
            "buffer" : 0,
            "byteLength" : 3280,
            "byteOffset" : 297712
        },
        {
            "buffer" : 0,
            "byteLength" : 4896,
            "byteOffset" : 300992
        },
        {
            "buffer" : 0,
            "byteLength" : 30720,
            "byteOffset" : 305888
        },
        {
            "buffer" : 0,
            "byteLength" : 30720,
            "byteOffset" : 336608
        },
        {
            "buffer" : 0,
            "byteLength" : 20480,
            "byteOffset" : 367328
        },
        {
            "buffer" : 0,
            "byteLength" : 25920,
            "byteOffset" : 387808
        },
        {
            "buffer" : 0,
            "byteLength" : 9792,
            "byteOffset" : 413728
        },
        {
            "buffer" : 0,
            "byteLength" : 9792,
            "byteOffset" : 423520
        },
        {
            "buffer" : 0,
            "byteLength" : 6528,
            "byteOffset" : 433312
        },
        {
            "buffer" : 0,
            "byteLength" : 9216,
            "byteOffset" : 439840
        },
        {
            "buffer" : 0,
            "byteLength" : 13824,
            "byteOffset" : 449056
        },
        {
            "buffer" : 0,
            "byteLength" : 13824,
            "byteOffset" : 462880
        },
        {
            "buffer" : 0,
            "byteLength" : 9216,
            "byteOffset" : 476704
        },
        {
            "buffer" : 0,
            "byteLength" : 12288,
            "byteOffset" : 485920
        },
        {
            "buffer" : 0,
            "byteLength" : 13824,
            "byteOffset" : 498208
        },
        {
            "buffer" : 0,
            "byteLength" : 13824,
            "byteOffset" : 512032
        },
        {
            "buffer" : 0,
            "byteLength" : 9216,
            "byteOffset" : 525856
        },
        {
            "buffer" : 0,
            "byteLength" : 13824,
            "byteOffset" : 535072
        },
        {
            "buffer" : 0,
            "byteLength" : 13824,
            "byteOffset" : 548896
        },
        {
            "buffer" : 0,
            "byteLength" : 9216,
            "byteOffset" : 562720
        }
    ],
    "buffers" : [
        {
            "byteLength" : 571936,
            "uri" : "Burguer.bin"
        }
    ]
}
