{
    "asset" : {
        "generator" : "Khronos glTF Blender I/O v1.7.33",
        "version" : "2.0"
    },
    "scene" : 0,
    "scenes" : [
        {
            "name" : "Scene",
            "nodes" : [
                0
            ]
        }
    ],
    "nodes" : [
        {
            "mesh" : 0,
            "name" : "chesse.001",
            "scale" : [
                0.879145622253418,
                0.879145622253418,
                0.879145622253418
            ],
            "translation" : [
                0,
                0.7107176780700684,
                -3.171945810317993
            ]
        }
    ],
    "materials" : [
        {
            "doubleSided" : true,
            "name" : "chees.001",
            "pbrMetallicRoughness" : {
                "baseColorFactor" : [
                    1,
                    0.6242557764053345,
                    0.024271460250020027,
                    1
                ],
                "metallicFactor" : 0,
                "roughnessFactor" : 0.3499999940395355
            }
        }
    ],
    "meshes" : [
        {
            "name" : "Plane.004",
            "primitives" : [
                {
                    "attributes" : {
                        "POSITION" : 0,
                        "NORMAL" : 1,
                        "TEXCOORD_0" : 2
                    },
                    "indices" : 3,
                    "material" : 0
                }
            ]
        }
    ],
    "accessors" : [
        {
            "bufferView" : 0,
            "componentType" : 5126,
            "count" : 5632,
            "max" : [
                1.000059723854065,
                -0.18712776899337769,
                0.9999841451644897
            ],
            "min" : [
                -0.9999343156814575,
                -0.5208876132965088,
                -1.000002384185791
            ],
            "type" : "VEC3"
        },
        {
            "bufferView" : 1,
            "componentType" : 5126,
            "count" : 5632,
            "type" : "VEC3"
        },
        {
            "bufferView" : 2,
            "componentType" : 5126,
            "count" : 5632,
            "type" : "VEC2"
        },
        {
            "bufferView" : 3,
            "componentType" : 5123,
            "count" : 33696,
            "type" : "SCALAR"
        }
    ],
    "bufferViews" : [
        {
            "buffer" : 0,
            "byteLength" : 67584,
            "byteOffset" : 0
        },
        {
            "buffer" : 0,
            "byteLength" : 67584,
            "byteOffset" : 67584
        },
        {
            "buffer" : 0,
            "byteLength" : 45056,
            "byteOffset" : 135168
        },
        {
            "buffer" : 0,
            "byteLength" : 67392,
            "byteOffset" : 180224
        }
    ],
    "buffers" : [
        {
            "byteLength" : 247616,
            "uri" : "Cheese.bin"
        }
    ]
}
