{
    "asset" : {
        "generator" : "Khronos glTF Blender I/O v1.7.33",
        "version" : "2.0"
    },
    "scene" : 0,
    "scenes" : [
        {
            "name" : "Scene",
            "nodes" : [
                0
            ]
        }
    ],
    "nodes" : [
        {
            "mesh" : 0,
            "name" : "meat.001",
            "translation" : [
                0,
                0.4974645972251892,
                -3.171945810317993
            ]
        }
    ],
    "materials" : [
        {
            "doubleSided" : true,
            "name" : "meat.001",
            "pbrMetallicRoughness" : {
                "metallicFactor" : 0
            }
        }
    ],
    "meshes" : [
        {
            "name" : "Circle.011",
            "primitives" : [
                {
                    "attributes" : {
                        "POSITION" : 0,
                        "NORMAL" : 1,
                        "TEXCOORD_0" : 2
                    },
                    "indices" : 3,
                    "material" : 0
                }
            ]
        }
    ],
    "accessors" : [
        {
            "bufferView" : 0,
            "componentType" : 5126,
            "count" : 410,
            "max" : [
                0.8595725297927856,
                0.26808175444602966,
                0.8804002404212952
            ],
            "min" : [
                -0.9188644289970398,
                -0.014181816019117832,
                -0.8786887526512146
            ],
            "type" : "VEC3"
        },
        {
            "bufferView" : 1,
            "componentType" : 5126,
            "count" : 410,
            "type" : "VEC3"
        },
        {
            "bufferView" : 2,
            "componentType" : 5126,
            "count" : 410,
            "type" : "VEC2"
        },
        {
            "bufferView" : 3,
            "componentType" : 5123,
            "count" : 2448,
            "type" : "SCALAR"
        }
    ],
    "bufferViews" : [
        {
            "buffer" : 0,
            "byteLength" : 4920,
            "byteOffset" : 0
        },
        {
            "buffer" : 0,
            "byteLength" : 4920,
            "byteOffset" : 4920
        },
        {
            "buffer" : 0,
            "byteLength" : 3280,
            "byteOffset" : 9840
        },
        {
            "buffer" : 0,
            "byteLength" : 4896,
            "byteOffset" : 13120
        }
    ],
    "buffers" : [
        {
            "byteLength" : 18016,
            "uri" : "Meat.bin"
        }
    ]
}
