{
    "asset" : {
        "generator" : "Khronos glTF Blender I/O v1.7.33",
        "version" : "2.0"
    },
    "scene" : 0,
    "scenes" : [
        {
            "name" : "Scene",
            "nodes" : [
                0
            ]
        }
    ],
    "nodes" : [
        {
            "mesh" : 0,
            "name" : "totato.001",
            "rotation" : [
                0,
                -0.5680117011070251,
                0,
                -0.8230204582214355
            ],
            "translation" : [
                0,
                0.6929141283035278,
                -3.171945810317993
            ]
        }
    ],
    "materials" : [
        {
            "doubleSided" : true,
            "name" : "tomato.001",
            "pbrMetallicRoughness" : {
                "baseColorFactor" : [
                    0.8000000715255737,
                    0,
                    0.000292519194772467,
                    1
                ],
                "metallicFactor" : 0,
                "roughnessFactor" : 0.1727272868156433
            }
        }
    ],
    "meshes" : [
        {
            "name" : "Circle.008",
            "primitives" : [
                {
                    "attributes" : {
                        "POSITION" : 0,
                        "NORMAL" : 1,
                        "TEXCOORD_0" : 2
                    },
                    "indices" : 3,
                    "material" : 0
                }
            ]
        }
    ],
    "accessors" : [
        {
            "bufferView" : 0,
            "componentType" : 5126,
            "count" : 2560,
            "max" : [
                0.9067829251289368,
                0.13046394288539886,
                0.8399767875671387
            ],
            "min" : [
                -0.8099361658096313,
                0.05953589081764221,
                -0.7880476713180542
            ],
            "type" : "VEC3"
        },
        {
            "bufferView" : 1,
            "componentType" : 5126,
            "count" : 2560,
            "type" : "VEC3"
        },
        {
            "bufferView" : 2,
            "componentType" : 5126,
            "count" : 2560,
            "type" : "VEC2"
        },
        {
            "bufferView" : 3,
            "componentType" : 5123,
            "count" : 12960,
            "type" : "SCALAR"
        }
    ],
    "bufferViews" : [
        {
            "buffer" : 0,
            "byteLength" : 30720,
            "byteOffset" : 0
        },
        {
            "buffer" : 0,
            "byteLength" : 30720,
            "byteOffset" : 30720
        },
        {
            "buffer" : 0,
            "byteLength" : 20480,
            "byteOffset" : 61440
        },
        {
            "buffer" : 0,
            "byteLength" : 25920,
            "byteOffset" : 81920
        }
    ],
    "buffers" : [
        {
            "byteLength" : 107840,
            "uri" : "Tomatoe.bin"
        }
    ]
}
