{
    "asset" : {
        "generator" : "Khronos glTF Blender I/O v1.7.33",
        "version" : "2.0"
    },
    "extensionsUsed" : [
        "KHR_materials_clearcoat"
    ],
    "scene" : 0,
    "scenes" : [
        {
            "name" : "Scene",
            "nodes" : [
                0,
                1
            ]
        }
    ],
    "nodes" : [
        {
            "mesh" : 0,
            "name" : "top.001",
            "translation" : [
                0,
                1.0799418687820435,
                -3.171945810317993
            ]
        },
        {
            "mesh" : 1,
            "name" : "topping_particle.001",
            "rotation" : [
                0,
                -0.5166728496551514,
                0,
                0.8561829328536987
            ],
            "translation" : [
                0,
                1.0767877101898193,
                -3.171945810317993
            ]
        }
    ],
    "materials" : [
        {
            "doubleSided" : true,
            "extensions" : {
                "KHR_materials_clearcoat" : {
                    "clearcoatFactor" : 0.12272727489471436,
                    "clearcoatRoughnessFactor" : 0.029999999329447746
                }
            },
            "name" : "bead_top.001",
            "pbrMetallicRoughness" : {
                "metallicFactor" : 0,
                "roughnessFactor" : 0.24090909957885742
            }
        },
        {
            "alphaMode" : "BLEND",
            "doubleSided" : true,
            "name" : "Material.002",
            "pbrMetallicRoughness" : {}
        }
    ],
    "meshes" : [
        {
            "name" : "Circle.013",
            "primitives" : [
                {
                    "attributes" : {
                        "POSITION" : 0,
                        "NORMAL" : 1,
                        "TEXCOORD_0" : 2
                    },
                    "indices" : 3,
                    "material" : 0
                }
            ]
        },
        {
            "name" : "Circle.007",
            "primitives" : [
                {
                    "attributes" : {
                        "POSITION" : 4,
                        "NORMAL" : 5,
                        "TEXCOORD_0" : 6
                    },
                    "indices" : 7,
                    "material" : 1
                }
            ]
        }
    ],
    "accessors" : [
        {
            "bufferView" : 0,
            "componentType" : 5126,
            "count" : 458,
            "max" : [
                0.9571084976196289,
                0.4198461174964905,
                0.9571084380149841
            ],
            "min" : [
                -0.9571084976196289,
                -0.2650989890098572,
                -0.9571084976196289
            ],
            "type" : "VEC3"
        },
        {
            "bufferView" : 1,
            "componentType" : 5126,
            "count" : 458,
            "type" : "VEC3"
        },
        {
            "bufferView" : 2,
            "componentType" : 5126,
            "count" : 458,
            "type" : "VEC2"
        },
        {
            "bufferView" : 3,
            "componentType" : 5123,
            "count" : 2736,
            "type" : "SCALAR"
        },
        {
            "bufferView" : 4,
            "componentType" : 5126,
            "count" : 816,
            "max" : [
                0.9040378928184509,
                0.42462262511253357,
                0.9040377140045166
            ],
            "min" : [
                -0.9040378332138062,
                0.2176462560892105,
                -0.9040379524230957
            ],
            "type" : "VEC3"
        },
        {
            "bufferView" : 5,
            "componentType" : 5126,
            "count" : 816,
            "type" : "VEC3"
        },
        {
            "bufferView" : 6,
            "componentType" : 5126,
            "count" : 816,
            "type" : "VEC2"
        },
        {
            "bufferView" : 7,
            "componentType" : 5123,
            "count" : 4608,
            "type" : "SCALAR"
        }
    ],
    "bufferViews" : [
        {
            "buffer" : 0,
            "byteLength" : 5496,
            "byteOffset" : 0
        },
        {
            "buffer" : 0,
            "byteLength" : 5496,
            "byteOffset" : 5496
        },
        {
            "buffer" : 0,
            "byteLength" : 3664,
            "byteOffset" : 10992
        },
        {
            "buffer" : 0,
            "byteLength" : 5472,
            "byteOffset" : 14656
        },
        {
            "buffer" : 0,
            "byteLength" : 9792,
            "byteOffset" : 20128
        },
        {
            "buffer" : 0,
            "byteLength" : 9792,
            "byteOffset" : 29920
        },
        {
            "buffer" : 0,
            "byteLength" : 6528,
            "byteOffset" : 39712
        },
        {
            "buffer" : 0,
            "byteLength" : 9216,
            "byteOffset" : 46240
        }
    ],
    "buffers" : [
        {
            "byteLength" : 55456,
            "uri" : "TopBread.bin"
        }
    ]
}
