{
    "asset" : {
        "generator" : "Khronos glTF Blender I/O v1.7.33",
        "version" : "2.0"
    },
    "scene" : 0,
    "scenes" : [
        {
            "name" : "Scene",
            "nodes" : [
                0,
                1,
                2
            ]
        }
    ],
    "nodes" : [
        {
            "mesh" : 0,
            "name" : "veg.005",
            "scale" : [
                1.189120888710022,
                1.189120888710022,
                1.189120888710022
            ],
            "translation" : [
                0,
                0.741680920124054,
                -3.171945810317993
            ]
        },
        {
            "mesh" : 1,
            "name" : "veg.004",
            "rotation" : [
                0,
                -0.7696090936660767,
                0,
                0.6385153532028198
            ],
            "scale" : [
                1.0578360557556152,
                1.0578359365463257,
                1.0578360557556152
            ],
            "translation" : [
                0,
                0.741680920124054,
                -3.171945810317993
            ]
        },
        {
            "mesh" : 2,
            "name" : "veg.003",
            "rotation" : [
                0,
                -0.6308185458183289,
                0,
                0.7759304046630859
            ],
            "scale" : [
                1.189120888710022,
                1.189120888710022,
                1.189120888710022
            ],
            "translation" : [
                0,
                0.741680920124054,
                -3.171945810317993
            ]
        }
    ],
    "materials" : [
        {
            "alphaCutoff" : 0.5,
            "alphaMode" : "MASK",
            "doubleSided" : true,
            "name" : "veg.001",
            "pbrMetallicRoughness" : {
                "metallicFactor" : 0,
                "roughnessFactor" : 0.5
            }
        }
    ],
    "meshes" : [
        {
            "name" : "Circle.006",
            "primitives" : [
                {
                    "attributes" : {
                        "POSITION" : 0,
                        "NORMAL" : 1,
                        "TEXCOORD_0" : 2
                    },
                    "indices" : 3,
                    "material" : 0
                }
            ]
        },
        {
            "name" : "Circle.004",
            "primitives" : [
                {
                    "attributes" : {
                        "POSITION" : 4,
                        "NORMAL" : 5,
                        "TEXCOORD_0" : 6
                    },
                    "indices" : 3,
                    "material" : 0
                }
            ]
        },
        {
            "name" : "Circle.005",
            "primitives" : [
                {
                    "attributes" : {
                        "POSITION" : 7,
                        "NORMAL" : 8,
                        "TEXCOORD_0" : 9
                    },
                    "indices" : 3,
                    "material" : 0
                }
            ]
        }
    ],
    "accessors" : [
        {
            "bufferView" : 0,
            "componentType" : 5126,
            "count" : 1152,
            "max" : [
                0.9108548164367676,
                0.07218087464570999,
                0.9778705835342407
            ],
            "min" : [
                -0.9108548164367676,
                -0.07027485221624374,
                -0.9778705835342407
            ],
            "type" : "VEC3"
        },
        {
            "bufferView" : 1,
            "componentType" : 5126,
            "count" : 1152,
            "type" : "VEC3"
        },
        {
            "bufferView" : 2,
            "componentType" : 5126,
            "count" : 1152,
            "type" : "VEC2"
        },
        {
            "bufferView" : 3,
            "componentType" : 5123,
            "count" : 6144,
            "type" : "SCALAR"
        },
        {
            "bufferView" : 4,
            "componentType" : 5126,
            "count" : 1152,
            "max" : [
                0.9108548164367676,
                0.07218087464570999,
                0.9778705835342407
            ],
            "min" : [
                -0.9108548164367676,
                -0.07027485221624374,
                -0.9778705835342407
            ],
            "type" : "VEC3"
        },
        {
            "bufferView" : 5,
            "componentType" : 5126,
            "count" : 1152,
            "type" : "VEC3"
        },
        {
            "bufferView" : 6,
            "componentType" : 5126,
            "count" : 1152,
            "type" : "VEC2"
        },
        {
            "bufferView" : 7,
            "componentType" : 5126,
            "count" : 1152,
            "max" : [
                0.9108548164367676,
                0.07218087464570999,
                0.9778705835342407
            ],
            "min" : [
                -0.9108548164367676,
                -0.07027485221624374,
                -0.9778705835342407
            ],
            "type" : "VEC3"
        },
        {
            "bufferView" : 8,
            "componentType" : 5126,
            "count" : 1152,
            "type" : "VEC3"
        },
        {
            "bufferView" : 9,
            "componentType" : 5126,
            "count" : 1152,
            "type" : "VEC2"
        }
    ],
    "bufferViews" : [
        {
            "buffer" : 0,
            "byteLength" : 13824,
            "byteOffset" : 0
        },
        {
            "buffer" : 0,
            "byteLength" : 13824,
            "byteOffset" : 13824
        },
        {
            "buffer" : 0,
            "byteLength" : 9216,
            "byteOffset" : 27648
        },
        {
            "buffer" : 0,
            "byteLength" : 12288,
            "byteOffset" : 36864
        },
        {
            "buffer" : 0,
            "byteLength" : 13824,
            "byteOffset" : 49152
        },
        {
            "buffer" : 0,
            "byteLength" : 13824,
            "byteOffset" : 62976
        },
        {
            "buffer" : 0,
            "byteLength" : 9216,
            "byteOffset" : 76800
        },
        {
            "buffer" : 0,
            "byteLength" : 13824,
            "byteOffset" : 86016
        },
        {
            "buffer" : 0,
            "byteLength" : 13824,
            "byteOffset" : 99840
        },
        {
            "buffer" : 0,
            "byteLength" : 9216,
            "byteOffset" : 113664
        }
    ],
    "buffers" : [
        {
            "byteLength" : 122880,
            "uri" : "Veg.bin"
        }
    ]
}
