<?xml version="1.0" encoding="UTF-8"?>
<svg width="700pt" height="700pt" version="1.1" viewBox="0 0 700 700" xmlns="http://www.w3.org/2000/svg">
 <g>
  <path d="m593.77 140.18h-487.55c0.69922-2.8008 1.9258-5.6016 3.3242-8.3984l35.699-64.75c6.4766-11.898 18.898-19.074 32.375-19.074h344.75c13.477 0 25.898 7.1758 32.375 19.074l35.699 64.75c1.4023 2.7969 2.625 5.5977 3.3242 8.3984z"/>
  <path d="m550.97 280.05c-5.6875 1.1211-11.531 1.6992-17.324 1.6992-23.816 0-45.168-9.8164-60.848-25.41-15.82 15.68-37.555 25.41-61.547 25.41-23.852 0-45.238-9.8359-60.934-25.426-15.82 15.695-37.574 25.426-61.566 25.426-23.852 0-45.219-9.8164-60.918-25.41-15.801 15.68-37.52 25.41-61.477 25.41-5.793 0-11.637-0.57812-17.414-1.6992-2.1172-0.40234-4.0781-1.2266-6.1406-1.7852v196.86c0 20.477 16.449 36.926 36.926 36.926h35.77v-169.77c0-8.2266 6.668-14.891 14.891-14.891h90.02c8.2266 0 14.891 6.668 14.891 14.891v169.77h184.98c20.477 0 36.926-16.449 36.926-36.926v-196.88c-2.082 0.57812-4.0781 1.3828-6.2305 1.8008zm-66.465 114.59c0 8.2266-6.668 14.891-14.891 14.891h-52.379c-8.2266 0-14.891-6.668-14.891-14.891v-52.379c0-8.2266 6.668-14.891 14.891-14.891h52.379c8.2266 0 14.891 6.668 14.891 14.891z"/>
  <path d="m593.77 166.43h-487.55c-0.42187 0-0.80469-0.125-1.2266-0.14062v25.691c0 29.574 19.949 56.699 49 62.301 39.199 7.6992 73.5-22.227 73.5-60.027 0 33.773 27.477 61.25 61.25 61.25s61.25-27.477 61.25-61.25c0 33.773 27.477 61.25 61.25 61.25s61.25-27.477 61.25-61.25c0 37.801 34.301 67.727 73.5 60.023 29.051-5.6016 49-32.727 49-62.301v-25.688c-0.42188 0.015625-0.80469 0.14062-1.2266 0.14062z"/>
 </g>
</svg>
