<?xml version="1.0" encoding="UTF-8"?>
<svg width="700pt" height="700pt" version="1.1" viewBox="0 0 700 700" xmlns="http://www.w3.org/2000/svg">
 <path d="m141.49 317.92h10.176c4.0234 0.011719 7.2773 3.2773 7.2773 7.3008v148.68c0 11.215 4.457 21.969 12.387 29.898 7.9258 7.9297 18.68 12.383 29.895 12.383h72.941c6.1875 0 12.121-2.457 16.496-6.832 4.3789-4.3789 6.8359-10.312 6.8359-16.5v-85.496c-0.29688-13.375 4.3203-26.398 12.98-36.598 8.6641-10.203 20.766-16.871 34.012-18.746 14.797-1.5391 29.555 3.2617 40.609 13.215 11.059 9.957 17.379 24.129 17.398 39.004v88.668c0 6.1875 2.457 12.121 6.8359 16.496 4.375 4.3789 10.309 6.8359 16.496 6.8359h72.848c11.215 0 21.973-4.4531 29.906-12.383 7.9297-7.9258 12.391-18.68 12.398-29.898v-148.73c0-4.0234 3.2539-7.2891 7.2773-7.3008h10.246c11.441-0.007813 22.391-4.6484 30.352-12.863 7.957-8.2188 12.25-19.312 11.891-30.746-0.35938-11.438-5.3398-22.238-13.801-29.938l-208.51-189.56c-7.75-7.1367-17.902-11.098-28.441-11.098s-20.691 3.9609-28.441 11.098l-206.71 187.86c-5.9844 5.168-10.484 11.836-13.035 19.32s-3.0625 15.516-1.4805 23.262c2.125 9.3125 7.3594 17.625 14.84 23.566 7.4844 5.9375 16.77 9.1484 26.32 9.1016z"/>
</svg>
